<mxfile host="app.diagrams.net" modified="2021-04-28T14:33:02.123Z" agent="5.0 (Windows)" etag="_AI5DswVukOyN75Gd9oY" version="14.6.6" type="github">
  <diagram id="iUYh6S3RtDVZ5PyIDheF" name="Page-1">
    <mxGraphModel dx="1038" dy="547" grid="1" gridSize="10" guides="1" tooltips="1" connect="1" arrows="1" fold="1" page="1" pageScale="1" pageWidth="1000" pageHeight="1169" math="0" shadow="0">
      <root>
        <mxCell id="0" />
        <mxCell id="1" parent="0" />
        <mxCell id="pWuJ-d0qpCr-HyZSL40h-1" value="&lt;div&gt;Auditor&lt;/div&gt;&lt;div&gt;&lt;br&gt;&lt;/div&gt;" style="shape=umlActor;verticalLabelPosition=bottom;verticalAlign=top;html=1;outlineConnect=0;" vertex="1" parent="1">
          <mxGeometry x="250" y="140" width="30" height="60" as="geometry" />
        </mxCell>
        <mxCell id="pWuJ-d0qpCr-HyZSL40h-3" value="Iniciar sesiÃ³n" style="ellipse;whiteSpace=wrap;html=1;" vertex="1" parent="1">
          <mxGeometry x="430" y="90" width="120" height="80" as="geometry" />
        </mxCell>
        <mxCell id="pWuJ-d0qpCr-HyZSL40h-5" value="" style="endArrow=none;html=1;entryX=0;entryY=0.5;entryDx=0;entryDy=0;" edge="1" parent="1" source="pWuJ-d0qpCr-HyZSL40h-1" target="pWuJ-d0qpCr-HyZSL40h-3">
          <mxGeometry width="50" height="50" relative="1" as="geometry">
            <mxPoint x="470" y="310" as="sourcePoint" />
            <mxPoint x="520" y="260" as="targetPoint" />
            <Array as="points" />
          </mxGeometry>
        </mxCell>
      </root>
    </mxGraphModel>
  </diagram>
</mxfile>
